<svg width="90" height="90" viewBox="0 0 90 90" fill="none" xmlns="http://www.w3.org/2000/svg">
<g clip-path="url(#clip0_809_17)">
<path d="M26.7363 6.71484C28.4766 8.2793 28.6172 10.9336 27.0527 12.6738L14.3965 26.7363C13.623 27.5977 12.5332 28.1074 11.373 28.125C10.2129 28.1426 9.10547 27.7031 8.2793 26.8945L1.23047 19.8633C-0.404297 18.2109 -0.404297 15.5391 1.23047 13.8867C2.86523 12.2344 5.55469 12.2344 7.18945 13.8867L11.0742 17.7715L20.7598 7.01367C22.3242 5.27344 24.9785 5.13281 26.7188 6.69727L26.7363 6.71484ZM26.7363 34.8398C28.4766 36.4043 28.6172 39.0586 27.0527 40.7988L14.3965 54.8613C13.623 55.7227 12.5332 56.2324 11.373 56.25C10.2129 56.2676 9.10547 55.8281 8.2793 55.0195L1.23047 47.9883C-0.421875 46.3359 -0.421875 43.6641 1.23047 42.0293C2.88281 40.3945 5.55469 40.377 7.18945 42.0293L11.0742 45.9141L20.7598 35.1562C22.3242 33.416 24.9785 33.2754 26.7188 34.8398H26.7363ZM39.375 16.875C39.375 13.7637 41.8887 11.25 45 11.25H84.375C87.4863 11.25 90 13.7637 90 16.875C90 19.9863 87.4863 22.5 84.375 22.5H45C41.8887 22.5 39.375 19.9863 39.375 16.875ZM39.375 45C39.375 41.8887 41.8887 39.375 45 39.375H84.375C87.4863 39.375 90 41.8887 90 45C90 48.1113 87.4863 50.625 84.375 50.625H45C41.8887 50.625 39.375 48.1113 39.375 45ZM28.125 73.125C28.125 70.0137 30.6387 67.5 33.75 67.5H84.375C87.4863 67.5 90 70.0137 90 73.125C90 76.2363 87.4863 78.75 84.375 78.75H33.75C30.6387 78.75 28.125 76.2363 28.125 73.125ZM8.4375 64.6875C10.6753 64.6875 12.8214 65.5764 14.4037 67.1588C15.9861 68.7411 16.875 70.8872 16.875 73.125C16.875 75.3628 15.9861 77.5089 14.4037 79.0912C12.8214 80.6736 10.6753 81.5625 8.4375 81.5625C6.19974 81.5625 4.05362 80.6736 2.47129 79.0912C0.888948 77.5089 -5.02914e-08 75.3628 -5.02914e-08 73.125C-5.02914e-08 70.8872 0.888948 68.7411 2.47129 67.1588C4.05362 65.5764 6.19974 64.6875 8.4375 64.6875Z" fill="url(#paint0_linear_809_17)"/>
</g>
<defs>
<linearGradient id="paint0_linear_809_17" x1="-1.25891" y1="67.9776" x2="95.6199" y2="58.8966" gradientUnits="userSpaceOnUse">
<stop stop-color="#B41FFA"/>
<stop offset="1" stop-color="#547FFF"/>
</linearGradient>
<clipPath id="clip0_809_17">
<rect width="90" height="90" fill="white"/>
</clipPath>
</defs>
</svg>
