<svg width="90" height="76" viewBox="0 0 90 76" fill="none" xmlns="http://www.w3.org/2000/svg">
<g clip-path="url(#clip0_809_13)">
<path d="M47.1797 0.593756L87.6797 24.3438C89.8453 25.6203 90.6328 28.5149 89.4234 30.8008C88.214 33.0867 85.4719 33.918 83.3062 32.6414L45 10.1828L6.67966 32.6563C4.51404 33.9328 1.77185 33.1016 0.562476 30.8156C-0.646899 28.5297 0.140601 25.6352 2.30623 24.3586L42.8203 0.593756C44.1844 -0.207806 45.8297 -0.207806 47.1937 0.593756H47.1797ZM45 23.75C46.4918 23.75 47.9226 24.3756 48.9775 25.4891C50.0323 26.6026 50.625 28.1128 50.625 29.6875C50.625 31.2622 50.0323 32.7725 48.9775 33.886C47.9226 34.9995 46.4918 35.625 45 35.625C43.5081 35.625 42.0774 34.9995 41.0225 33.886C39.9676 32.7725 39.375 31.2622 39.375 29.6875C39.375 28.1128 39.9676 26.6026 41.0225 25.4891C42.0774 24.3756 43.5081 23.75 45 23.75ZM20.25 38C21.7418 38 23.1726 38.6256 24.2275 39.7391C25.2823 40.8526 25.875 42.3628 25.875 43.9375C25.875 45.5122 25.2823 47.0225 24.2275 48.136C23.1726 49.2494 21.7418 49.875 20.25 49.875C18.7581 49.875 17.3274 49.2494 16.2725 48.136C15.2176 47.0225 14.625 45.5122 14.625 43.9375C14.625 42.3628 15.2176 40.8526 16.2725 39.7391C17.3274 38.6256 18.7581 38 20.25 38ZM64.125 43.9375C64.125 42.3628 64.7176 40.8526 65.7725 39.7391C66.8274 38.6256 68.2581 38 69.75 38C71.2418 38 72.6726 38.6256 73.7275 39.7391C74.7823 40.8526 75.375 42.3628 75.375 43.9375C75.375 45.5122 74.7823 47.0225 73.7275 48.136C72.6726 49.2494 71.2418 49.875 69.75 49.875C68.2581 49.875 66.8274 49.2494 65.7725 48.136C64.7176 47.0225 64.125 45.5122 64.125 43.9375ZM31.9078 72.9422L28.125 65.5352V71.25C28.125 73.8773 26.114 76 23.625 76H16.875C14.3859 76 12.375 73.8773 12.375 71.25V65.5352L8.59216 72.9422C7.70623 74.6789 5.66716 75.3172 4.02185 74.3969C2.37654 73.4766 1.77185 71.3094 2.64373 69.5727L7.97341 59.1375C10.125 54.907 14.3156 52.2648 18.8719 52.2648H21.614C23.9062 52.2648 26.1 52.9328 27.9984 54.1352L32.7234 44.8875C34.875 40.657 39.0656 38.0148 43.6219 38.0148H46.364C50.9203 38.0148 55.0969 40.657 57.2625 44.8875L61.9875 54.1352C63.8859 52.9328 66.0797 52.2648 68.3719 52.2648H71.114C75.6703 52.2648 79.8469 54.907 82.0125 59.1375L87.3422 69.5727C88.2281 71.3094 87.6093 73.4617 85.964 74.3969C84.3187 75.332 82.2797 74.6789 81.3937 72.9422L77.625 65.5352V71.25C77.625 73.8773 75.614 76 73.125 76H66.375C63.8859 76 61.875 73.8773 61.875 71.25V65.5352L58.0922 72.9422C57.2062 74.6789 55.1672 75.3172 53.5219 74.3969C51.8765 73.4766 51.2718 71.3094 52.1437 69.5727L57.2484 59.5531C57.0094 59.3008 56.7984 59.0188 56.6437 58.6922L52.875 51.2852V59.375C52.875 62.0023 50.864 64.125 48.375 64.125H41.625C39.1359 64.125 37.125 62.0023 37.125 59.375V51.2852L33.3422 58.6922C33.1734 59.0188 32.9765 59.3008 32.7375 59.5531L37.8422 69.5727C38.7281 71.3094 38.1093 73.4617 36.464 74.3969C34.8187 75.332 32.7797 74.6789 31.8937 72.9422H31.9078Z" fill="url(#paint0_linear_809_13)"/>
</g>
<defs>
<linearGradient id="paint0_linear_809_13" x1="-1.25532" y1="62.4052" x2="95.6118" y2="53.3331" gradientUnits="userSpaceOnUse">
<stop stop-color="#B41FFA"/>
<stop offset="1" stop-color="#547FFF"/>
</linearGradient>
<clipPath id="clip0_809_13">
<rect width="90" height="76" fill="white"/>
</clipPath>
</defs>
</svg>
