<svg width="90" height="90" viewBox="0 0 90 90" fill="none" xmlns="http://www.w3.org/2000/svg">
<path d="M8.4375 11.25C3.7793 11.25 0 15.0293 0 19.6875C0 22.3418 1.24805 24.8379 3.375 26.4375L41.625 55.125C43.6289 56.6191 46.3711 56.6191 48.375 55.125L86.625 26.4375C88.752 24.8379 90 22.3418 90 19.6875C90 15.0293 86.2207 11.25 81.5625 11.25H8.4375ZM0 30.9375V67.5C0 73.7051 5.04492 78.75 11.25 78.75H78.75C84.9551 78.75 90 73.7051 90 67.5V30.9375L51.75 59.625C47.7422 62.6309 42.2578 62.6309 38.25 59.625L0 30.9375Z" fill="url(#paint0_linear_809_19)"/>
<defs>
<linearGradient id="paint0_linear_809_19" x1="-1.25" y1="66.6768" x2="95.3955" y2="56.4844" gradientUnits="userSpaceOnUse">
<stop stop-color="#B41FFA"/>
<stop offset="1" stop-color="#547FFF"/>
</linearGradient>
</defs>
</svg>
